<!-- Generator: Adobe Illustrator 21.1.0, SVG Export Plug-In  -->
<svg version="1.1"
	 xmlns="http://www.w3.org/2000/svg" xmlns:xlink="http://www.w3.org/1999/xlink" xmlns:a="http://ns.adobe.com/AdobeSVGViewerExtensions/3.0/"
	 x="0px" y="0px" width="32px" height="31.9px" viewBox="0 0 32 31.9" style="enable-background:new 0 0 32 31.9;"
	 xml:space="preserve">
<style type="text/css">
	.st0{fill:#DCDCDC;}
</style>
<defs>
</defs>
<path class="st0" d="M2.6,15.9c0,0.7-0.6,1.3-1.3,1.3c-0.7,0-1.3-0.6-1.3-1.3c0-2.1,0.4-4.2,1.2-6.1l0,0c0.8-2,2-3.7,3.4-5.2
	C7.6,1.8,11.6,0,16,0c2.1,0,4.2,0.4,6.1,1.2c2,0.8,3.7,2,5.2,3.5c1.5,1.4,2.6,3.2,3.4,5.2l0,0c0.8,1.9,1.2,3.9,1.2,6.1
	c0,2.2-0.4,4.2-1.2,6.1l0,0.1c-0.8,1.9-2,3.6-3.4,5.1c-1.5,1.5-3.2,2.6-5.2,3.5l0,0c-1.9,0.8-4,1.2-6.1,1.2c-2.2,0-4.2-0.4-6.1-1.2
	l-0.1,0C8.3,29.9,6.9,29,5.7,28l-3.5,3.5c-0.5,0.5-1.3,0.5-1.8,0C0.1,31.3,0,30.9,0,30.6v0v-4.3v-4.4c0-0.7,0.6-1.3,1.3-1.3h0h4.4
	h4.4c0.7,0,1.3,0.6,1.3,1.3c0,0.3-0.2,0.7-0.4,0.9l-3.5,3.4c1,0.8,2.2,1.5,3.4,2l0.1,0c1.6,0.7,3.3,1,5.1,1c1.8,0,3.6-0.3,5.1-1l0,0
	c1.6-0.7,3.1-1.7,4.4-2.9c1.2-1.2,2.2-2.7,2.9-4.3l0-0.1c0.6-1.6,1-3.3,1-5.1c0-1.8-0.4-3.5-1-5.1v0c-0.7-1.6-1.7-3.1-2.9-4.3
	c-1.2-1.2-2.7-2.2-4.4-2.9c-1.6-0.6-3.3-1-5.1-1C12.3,2.5,9,4,6.6,6.4c-1.2,1.2-2.2,2.7-2.9,4.3l0,0C3,12.4,2.6,14.1,2.6,15.9
	L2.6,15.9z M7,23.1L7,23.1H5.7H2.5v3.1v1.3C4,26.1,5.5,24.6,7,23.1L7,23.1z"/>
</svg>
